<svg width="80" height="80" viewBox="0 0 80 80" fill="none" xmlns="http://www.w3.org/2000/svg">
<path d="M40 68.56C37.8538 68.5846 35.7629 67.8794 34.07 66.56L6.56 44.56C5.8213 44.0394 5.21854 43.3488 4.80247 42.5465C4.38641 41.7443 4.16923 40.8537 4.16923 39.95C4.16923 39.0463 4.38641 38.1557 4.80247 37.3535C5.21854 36.5512 5.8213 35.8607 6.56 35.34L34.07 13.34C35.7882 12.0746 37.8661 11.392 40 11.392C42.1339 11.392 44.2118 12.0746 45.93 13.34L73.44 35.34C74.1787 35.8607 74.7815 36.5512 75.1975 37.3535C75.6136 38.1557 75.8308 39.0463 75.8308 39.95C75.8308 40.8537 75.6136 41.7443 75.1975 42.5465C74.7815 43.3488 74.1787 44.0394 73.44 44.56L45.93 66.56C44.2371 67.8794 42.1462 68.5846 40 68.56Z" fill="#FFB300"/>
<path d="M40 11.94C42.0271 11.9028 44.0074 12.5512 45.62 13.78L73.13 35.78C73.8087 36.2548 74.3629 36.8863 74.7456 37.621C75.1282 38.3556 75.328 39.1717 75.328 40C75.328 40.8283 75.1282 41.6444 74.7456 42.3791C74.3629 43.1137 73.8087 43.7452 73.13 44.22L45.62 66.22C43.9902 67.4159 42.0215 68.0607 40 68.0607C37.9785 68.0607 36.0098 67.4159 34.38 66.22L6.87 44.22C6.19126 43.7452 5.63706 43.1137 5.25441 42.3791C4.87176 41.6444 4.67197 40.8283 4.67197 40C4.67197 39.1717 4.87176 38.3556 5.25441 37.621C5.63706 36.8863 6.19126 36.2548 6.87 35.78L34.38 13.78C35.9926 12.5512 37.9729 11.9028 40 11.94ZM40 10.94C37.7439 10.9019 35.5413 11.6279 33.75 13L6.25 35C5.45132 35.5665 4.79997 36.3161 4.35046 37.186C3.90096 38.0559 3.66639 39.0208 3.66639 40C3.66639 40.9792 3.90096 41.9441 4.35046 42.8141C4.79997 43.684 5.45132 44.4335 6.25 45L33.75 67C35.5591 68.3381 37.7498 69.0603 40 69.0603C42.2502 69.0603 44.4409 68.3381 46.25 67L73.75 45C74.5487 44.4335 75.2 43.684 75.6495 42.8141C76.099 41.9441 76.3336 40.9792 76.3336 40C76.3336 39.0208 76.099 38.0559 75.6495 37.186C75.2 36.3161 74.5487 35.5665 73.75 35L46.25 13C44.4587 11.6279 42.2561 10.9019 40 10.94Z" fill="white"/>
</svg>
