<svg width="80" height="80" viewBox="0 0 80 80" fill="none" xmlns="http://www.w3.org/2000/svg">
<g opacity="0.48">
<g opacity="0.48">
<path d="M78.6 44.18C78.86 42.79 80 41.42 80 39.98C80 38.54 78.86 37.17 78.59 35.78C78.32 34.39 78.91 32.78 78.38 31.45C77.85 30.12 76.24 29 75.46 27.72C74.68 26.44 74.65 24.81 73.64 23.62C72.63 22.43 70.64 21.74 69.45 20.62C68.26 19.5 67.59 18 66.17 17.11C64.75 16.22 62.64 15.94 61.06 15.17C59.48 14.4 58.31 13.05 56.59 12.45C54.87 11.85 52.78 12.08 50.96 11.68C49.14 11.28 47.55 10.24 45.66 10.04C43.77 9.84 41.88 10.5 39.97 10.5C38.06 10.5 36.11 9.84 34.28 10.04C32.45 10.24 30.77 11.3 29 11.69C27.23 12.08 25.07 11.89 23.37 12.47C21.67 13.05 20.49 14.42 18.91 15.19C17.33 15.96 15.22 16.19 13.8 17.19C12.38 18.19 11.8 19.67 10.53 20.75C9.26 21.83 7.37 22.51 6.35 23.75C5.33 24.99 5.35 26.55 4.53 27.85C3.71 29.15 2.13 30.12 1.6 31.49C1.07 32.86 1.66 34.4 1.4 35.82C1.14 37.24 0 38.58 0 40C0 41.42 1.14 42.81 1.41 44.2C1.68 45.59 1.09 47.2 1.62 48.53C2.15 49.86 3.76 51 4.54 52.28C5.32 53.56 5.35 55.19 6.36 56.38C7.37 57.57 9.36 58.26 10.55 59.38C11.74 60.5 12.41 62 13.83 62.93C15.25 63.86 17.36 64.1 18.94 64.87C20.52 65.64 21.69 66.99 23.41 67.59C25.13 68.19 27.22 67.96 29.04 68.36C30.86 68.76 32.46 69.8 34.34 70C36.22 70.2 38.12 69.54 40.03 69.54C41.94 69.54 43.89 70.2 45.72 70C47.55 69.8 49.23 68.74 51.02 68.35C52.81 67.96 54.95 68.15 56.65 67.57C58.35 66.99 59.53 65.57 61.11 64.85C62.69 64.13 64.8 63.85 66.22 62.85C67.64 61.85 68.22 60.37 69.49 59.29C70.76 58.21 72.65 57.53 73.67 56.29C74.69 55.05 74.67 53.49 75.49 52.19C76.31 50.89 77.87 49.83 78.4 48.46C78.93 47.09 78.34 45.6 78.6 44.18Z" fill="black"/>
</g>
</g>
</svg>
