<svg width="80" height="80" viewBox="0 0 80 80" fill="none" xmlns="http://www.w3.org/2000/svg">
<path d="M40 69.5C61.8152 69.5 79.5 56.2924 79.5 40C79.5 23.7076 61.8152 10.5 40 10.5C18.1848 10.5 0.5 23.7076 0.5 40C0.5 56.2924 18.1848 69.5 40 69.5Z" fill="#E88A4A"/>
<path d="M40 11C61.5 11 79 24 79 40C79 56 61.5 69 40 69C18.5 69 1 56 1 40C1 24 18.5 11 40 11ZM40 10C17.91 10 0 23.43 0 40C0 56.57 17.91 70 40 70C62.09 70 80 56.57 80 40C80 23.43 62.09 10 40 10Z" fill="white"/>
<path d="M40 59.01C59.8325 59.01 75.91 48.726 75.91 36.04C75.91 23.354 59.8325 13.07 40 13.07C20.1674 13.07 4.09 23.354 4.09 36.04C4.09 48.726 20.1674 59.01 40 59.01Z" fill="#FF922B"/>
</svg>
