<svg width="129" height="134" viewBox="0 0 129 134" fill="none" xmlns="http://www.w3.org/2000/svg">
<g clip-path="url(#clip0_2_41)">
<g opacity="0.12">
<path opacity="0.12" d="M10.0178 127.24L19.5978 42H122.408L119.178 128.13C119.121 129.683 118.464 131.153 117.345 132.231C116.225 133.309 114.732 133.911 113.178 133.91H15.9778C15.1336 133.91 14.2989 133.731 13.5284 133.386C12.7578 133.041 12.0688 132.537 11.5062 131.908C10.9437 131.278 10.5204 130.537 10.2639 129.733C10.0074 128.928 9.92357 128.079 10.0178 127.24Z" fill="black"/>
<path opacity="0.12" d="M16.4778 123.46L24.9578 48H116.178L113.318 124.06C113.279 125.095 112.841 126.074 112.095 126.792C111.349 127.51 110.353 127.911 109.318 127.91H20.4578C19.8941 127.911 19.3366 127.792 18.8219 127.563C18.3071 127.333 17.8468 126.997 17.471 126.577C17.0952 126.156 16.8124 125.662 16.6413 125.124C16.4701 124.587 16.4144 124.02 16.4778 123.46Z" fill="black"/>
</g>
<path d="M10.0178 119.24L19.5978 34H122.408L119.178 120.13C119.121 121.683 118.464 123.153 117.345 124.231C116.225 125.309 114.732 125.911 113.178 125.91H15.9778C15.1336 125.91 14.2989 125.731 13.5284 125.386C12.7578 125.041 12.0688 124.537 11.5062 123.908C10.9437 123.278 10.5204 122.537 10.2639 121.733C10.0074 120.928 9.92357 120.079 10.0178 119.24Z" fill="#898E91"/>
<path d="M16.4778 115.46L24.9578 40H116.178L113.318 116.06C113.279 117.095 112.841 118.074 112.095 118.792C111.349 119.51 110.353 119.911 109.318 119.91H20.4578C19.8941 119.911 19.3366 119.792 18.8219 119.563C18.3071 119.333 17.8468 118.997 17.471 118.577C17.0952 118.156 16.8124 117.662 16.6413 117.124C16.4701 116.587 16.4144 116.02 16.4778 115.46Z" fill="#B0B0B0"/>
<path d="M5.27784 0L0.317841 44.11H126.668L128.328 0H5.27784Z" fill="#666666"/>
<path d="M64.7078 65.09C64.7078 63.8308 63.6871 62.81 62.4278 62.81C61.1686 62.81 60.1478 63.8308 60.1478 65.09V72.22C60.1478 73.4792 61.1686 74.5 62.4278 74.5C63.6871 74.5 64.7078 73.4792 64.7078 72.22V65.09Z" fill="#C9C9C9"/>
<path d="M76.0978 65.09C76.0978 63.8308 75.077 62.81 73.8178 62.81C72.5586 62.81 71.5378 63.8308 71.5378 65.09V72.22C71.5378 73.4792 72.5586 74.5 73.8178 74.5C75.077 74.5 76.0978 73.4792 76.0978 72.22V65.09Z" fill="#C9C9C9"/>
<path d="M64.7078 62.18C64.7078 60.9208 63.6871 59.9 62.4278 59.9C61.1686 59.9 60.1478 60.9208 60.1478 62.18V69.31C60.1478 70.5692 61.1686 71.59 62.4278 71.59C63.6871 71.59 64.7078 70.5692 64.7078 69.31V62.18Z" fill="#969696"/>
<path d="M76.0978 62.18C76.0978 60.9208 75.077 59.9 73.8178 59.9C72.5586 59.9 71.5378 60.9208 71.5378 62.18V69.31C71.5378 70.5692 72.5586 71.59 73.8178 71.59C75.077 71.59 76.0978 70.5692 76.0978 69.31V62.18Z" fill="#969696"/>
<path d="M0.317841 44.11L7.47784 68.66H125.668L126.668 44.11H0.317841Z" fill="#4D4D4D"/>
<path d="M7.47784 68.66L13.9378 84.4L15.6978 68.66H7.47784Z" fill="#333333"/>
<path d="M121.108 68.66H125.668L120.518 84.4" fill="#333333"/>
<path d="M30.7378 64.39C36.2607 64.39 40.7378 60.8083 40.7378 56.39C40.7378 51.9717 36.2607 48.39 30.7378 48.39C25.215 48.39 20.7378 51.9717 20.7378 56.39C20.7378 60.8083 25.215 64.39 30.7378 64.39Z" fill="#C9C9C9"/>
<path d="M30.7378 61.39C34.6038 61.39 37.7378 59.1514 37.7378 56.39C37.7378 53.6286 34.6038 51.39 30.7378 51.39C26.8718 51.39 23.7378 53.6286 23.7378 56.39C23.7378 59.1514 26.8718 61.39 30.7378 61.39Z" fill="#969696"/>
<path d="M31.9878 51.47C31.5732 51.4181 31.1557 51.3914 30.7378 51.39C30.3199 51.3911 29.9025 51.4178 29.4878 51.47V61.3C29.9023 61.3556 30.3197 61.3856 30.7378 61.39C31.1559 61.3853 31.5734 61.3552 31.9878 61.3V51.47Z" fill="#B0B0B0"/>
<path d="M67.3678 64.39C72.8907 64.39 77.3678 60.8083 77.3678 56.39C77.3678 51.9717 72.8907 48.39 67.3678 48.39C61.845 48.39 57.3678 51.9717 57.3678 56.39C57.3678 60.8083 61.845 64.39 67.3678 64.39Z" fill="#C9C9C9"/>
<path d="M67.3678 60.39C70.6816 60.39 73.3678 58.5991 73.3678 56.39C73.3678 54.1809 70.6816 52.39 67.3678 52.39C64.0541 52.39 61.3678 54.1809 61.3678 56.39C61.3678 58.5991 64.0541 60.39 67.3678 60.39Z" fill="#969696"/>
<path d="M67.3678 54.89L96.0878 53.39C96.4818 53.3696 96.8759 53.4271 97.2477 53.559C97.6195 53.691 97.9616 53.8949 98.2546 54.1591C98.5475 54.4233 98.7856 54.7426 98.9552 55.0988C99.1247 55.4549 99.2225 55.841 99.2428 56.235C99.2632 56.629 99.2057 57.0231 99.0738 57.3949C98.9418 57.7666 98.7379 58.1088 98.4738 58.4017C98.2096 58.6947 97.8903 58.9328 97.5341 59.1023C97.1779 59.2719 96.7918 59.3696 96.3978 59.39C95.8878 59.39 67.8378 57.88 67.3978 57.89C67 57.89 66.6185 57.732 66.3372 57.4507C66.0559 57.1694 65.8978 56.7878 65.8978 56.39C65.8978 55.9922 66.0559 55.6106 66.3372 55.3293C66.6185 55.048 67 54.89 67.3978 54.89H67.3678Z" fill="#666666"/>
</g>
<defs>
<clipPath id="clip0_2_41">
<rect width="128.01" height="133.91" fill="white" transform="translate(0.317841)"/>
</clipPath>
</defs>
</svg>
