<svg width="375" height="375" viewBox="0 0 375 375" fill="none" xmlns="http://www.w3.org/2000/svg">
<path d="M375 0H0V375H375V0Z" fill="#D6976F"/>
<path d="M36 0H137L125 375H0L36 0Z" fill="#333333"/>
<path d="M36 0H137L133.55 107.91H25.64L36 0Z" fill="#F9B779"/>
<path d="M25.64 107.91H133.55L129.59 231.65H13.76L25.64 107.91Z" fill="#F9B779"/>
<path d="M137 0H238L250 375H125L137 0Z" fill="#4D4D4D"/>
<path d="M139.2 369C138.16 369.003 137.13 368.797 136.172 368.393C135.214 367.989 134.347 367.395 133.623 366.649C132.9 365.902 132.334 365.016 131.961 364.046C131.587 363.075 131.414 362.039 131.45 361L142.55 14C142.64 11.8621 143.546 9.84025 145.083 8.3516C146.621 6.86296 148.67 6.02119 150.81 6H224.19C226.329 6.02131 228.377 6.86342 229.913 8.3523C231.448 9.84118 232.353 11.863 232.44 14L243.55 361C243.586 362.039 243.413 363.075 243.039 364.046C242.666 365.016 242.1 365.902 241.377 366.649C240.653 367.395 239.786 367.989 238.828 368.393C237.87 368.797 236.84 369.003 235.8 369H139.2Z" fill="#333333"/>
<path d="M238 0H339L375 375H250L238 0Z" fill="#4D4D4D"/>
<path d="M263.81 369C261.67 368.979 259.621 368.137 258.083 366.648C256.546 365.16 255.64 363.138 255.55 361L244.45 14C244.414 12.9607 244.587 11.9248 244.961 10.9542C245.334 9.98363 245.9 9.09838 246.623 8.35146C247.347 7.60455 248.214 7.01131 249.172 6.60726C250.13 6.20322 251.16 5.99668 252.2 6H325.55C327.732 6.04474 329.823 6.88074 331.435 8.3524C333.046 9.82406 334.068 11.8311 334.31 14L367.63 361C367.753 362.015 367.657 363.044 367.348 364.019C367.039 364.993 366.525 365.89 365.839 366.649C365.154 367.407 364.314 368.01 363.375 368.415C362.437 368.821 361.422 369.02 360.4 369H263.81Z" fill="#333333"/>
<path d="M13.76 231.65H129.59L125 375H0L13.76 231.65Z" fill="#333333"/>
<path d="M14.6 369C13.5779 369.02 12.5633 368.821 11.6249 368.415C10.6864 368.01 9.84609 367.407 9.16061 366.649C8.47513 365.89 7.96053 364.993 7.65161 364.019C7.34269 363.044 7.24665 362.015 7.36999 361L18.45 245.61C18.692 243.441 19.7139 241.434 21.3253 239.962C22.9368 238.491 25.0281 237.655 27.21 237.61H115.39C116.43 237.607 117.46 237.813 118.418 238.217C119.376 238.621 120.243 239.215 120.967 239.961C121.69 240.708 122.256 241.594 122.629 242.564C123.003 243.535 123.176 244.571 123.14 245.61L119.44 361C119.353 363.137 118.448 365.159 116.913 366.648C115.377 368.137 113.329 368.979 111.19 369H14.6Z" fill="#4D4D4D"/>
<path d="M18.73 0H137L132.96 107.91H6.60001L18.73 0Z" fill="#F9B779"/>
<path opacity="0.16" d="M375 0H0V12.39H375V0Z" fill="black"/>
</svg>
