<svg width="80" height="80" viewBox="0 0 80 80" fill="none" xmlns="http://www.w3.org/2000/svg">
<path d="M35.06 69.5C34.83 69.5 34.61 69.5 34.39 69.5C33.3867 69.3414 32.4084 69.0523 31.48 68.64C30.7257 68.3174 29.9465 68.0566 29.15 67.86C28.3081 67.7004 27.456 67.6001 26.6 67.56C25.5847 67.5322 24.5769 67.3777 23.6 67.1C22.7185 66.7507 21.8956 66.2684 21.16 65.67C20.5314 65.1924 19.8622 64.7708 19.16 64.41C18.4058 64.0739 17.6268 63.7964 16.83 63.58C15.8745 63.3478 14.9558 62.9843 14.1 62.5C13.404 61.9871 12.8018 61.3578 12.32 60.64C11.9008 60.0428 11.4179 59.4929 10.88 59C10.2757 58.5066 9.62615 58.0713 8.94 57.7C8.12984 57.2812 7.38803 56.7417 6.74 56.1C6.26847 55.4672 5.92845 54.7463 5.74 53.98C5.58077 53.2905 5.33199 52.6249 5 52C4.6001 51.3963 4.13754 50.8365 3.62 50.33C3.00001 49.7648 2.4942 49.0858 2.13 48.33C1.91789 47.6135 1.86331 46.8596 1.97 46.12C2.05718 45.4562 2.05718 44.7838 1.97 44.12C1.81106 43.4571 1.57267 42.8158 1.26 42.21C0.85268 41.5356 0.593604 40.7823 0.5 40C0.57168 39.2261 0.806866 38.4762 1.19 37.8C1.49509 37.1955 1.72996 36.558 1.89 35.9C1.97638 35.2361 1.97638 34.5639 1.89 33.9C1.78038 33.1611 1.83155 32.4073 2.04 31.69C2.41029 30.9379 2.9153 30.26 3.53 29.69C4.06148 29.1809 4.53441 28.6141 4.94 28C5.27725 27.3942 5.53919 26.7494 5.72 26.08C5.90845 25.3137 6.24847 24.5928 6.72 23.96C7.36165 23.3152 8.10067 22.7753 8.91 22.36C9.59571 21.9841 10.2451 21.5456 10.85 21.05C11.3885 20.5539 11.8713 20.0007 12.29 19.4C12.7691 18.68 13.3717 18.0503 14.07 17.54C14.9202 17.0515 15.8363 16.6878 16.79 16.46C17.5871 16.2402 18.3661 15.9594 19.12 15.62C19.8243 15.2629 20.4939 14.8411 21.12 14.36C21.8444 13.79 22.65 13.3316 23.51 13C24.485 12.7135 25.494 12.5588 26.51 12.54C27.3667 12.5021 28.2192 12.3984 29.06 12.23C29.8565 12.0334 30.6357 11.7726 31.39 11.45C32.3179 11.0364 33.2963 10.7472 34.3 10.59C34.52 10.59 34.75 10.59 34.98 10.59C35.7745 10.61 36.5665 10.6868 37.35 10.82C38.2273 10.949 39.1133 11.0092 40 11C40.8687 10.9788 41.7345 10.8919 42.59 10.74C43.3766 10.6037 44.172 10.5235 44.97 10.5C45.2 10.5 45.42 10.5 45.64 10.5C46.6433 10.6586 47.6216 10.9477 48.55 11.36C49.3043 11.6826 50.0835 11.9434 50.88 12.14C51.7218 12.3002 52.574 12.4005 53.43 12.44C54.4453 12.4678 55.4531 12.6223 56.43 12.9C57.3116 13.2493 58.1344 13.7316 58.87 14.33C59.4986 14.8076 60.1678 15.2292 60.87 15.59C61.6242 15.9261 62.4032 16.2036 63.2 16.42C64.1549 16.6541 65.0734 17.0174 65.93 17.5C66.626 18.0129 67.2281 18.6422 67.71 19.36C68.1198 19.9557 68.5925 20.5055 69.12 21C69.7243 21.4934 70.3738 21.9287 71.06 22.3C71.8702 22.7188 72.612 23.2583 73.26 23.9C73.7315 24.5328 74.0716 25.2537 74.26 26.02C74.4192 26.7095 74.668 27.3751 75 28C75.3999 28.6037 75.8625 29.1635 76.38 29.67C76.9996 30.2379 77.5083 30.9161 77.88 31.67C78.0836 32.3881 78.1347 33.1409 78.03 33.88C77.9428 34.5438 77.9428 35.2162 78.03 35.88C78.1889 36.5429 78.4273 37.1842 78.74 37.79C79.1473 38.4644 79.4064 39.2177 79.5 40C79.4283 40.7739 79.1931 41.5238 78.81 42.2C78.5033 42.8073 78.2684 43.4483 78.11 44.11C78.0227 44.7738 78.0227 45.4462 78.11 46.11C78.2259 46.8486 78.1746 47.6038 77.96 48.32C77.5933 49.0743 77.0878 49.7528 76.47 50.32C75.9391 50.8259 75.4662 51.3894 75.06 52C74.7227 52.6058 74.4608 53.2506 74.28 53.92C74.0916 54.6863 73.7515 55.4072 73.28 56.04C72.6403 56.6871 71.9009 57.2273 71.09 57.64C70.4043 58.0159 69.7549 58.4544 69.15 58.95C68.6115 59.4461 68.1286 59.9993 67.71 60.6C67.2309 61.32 66.6283 61.9497 65.93 62.46C65.0798 62.9485 64.1637 63.3122 63.21 63.54C62.4129 63.7598 61.6339 64.0406 60.88 64.38C60.177 64.7394 59.5077 65.1611 58.88 65.64C58.1471 66.2423 57.3236 66.7249 56.44 67.07C55.4643 67.3533 54.4558 67.5079 53.44 67.53C52.5833 67.5673 51.7307 67.671 50.89 67.84C50.0935 68.0366 49.3143 68.2974 48.56 68.62C47.6321 69.0336 46.6537 69.3228 45.65 69.48C45.43 69.48 45.2 69.48 44.97 69.48C44.1756 69.4596 43.3836 69.3827 42.6 69.25C41.741 69.1001 40.8718 69.0165 40 69C39.128 69.0207 38.2588 69.1076 37.4 69.26C36.6265 69.3944 35.8446 69.4746 35.06 69.5Z" fill="#CC1B00"/>
<path d="M44.94 11C45.1465 10.9895 45.3535 10.9895 45.56 11C46.52 11.1495 47.4552 11.4288 48.34 11.83C49.1189 12.1563 49.9211 12.4237 50.74 12.63C51.6079 12.7973 52.4869 12.9009 53.37 12.94C54.3511 12.9589 55.3257 13.1034 56.27 13.37C57.1018 13.709 57.88 14.1671 58.58 14.73C59.2064 15.2252 59.8757 15.6636 60.58 16.04C61.3586 16.3918 62.1646 16.6794 62.99 16.9C63.8956 17.1113 64.7674 17.4479 65.58 17.9C66.2285 18.3811 66.7899 18.9696 67.24 19.64C67.6813 20.268 68.1874 20.8479 68.75 21.37C69.3747 21.8792 70.0441 22.331 70.75 22.72C71.5132 23.1104 72.2114 23.6163 72.82 24.22C73.2405 24.8023 73.5429 25.4614 73.71 26.16C73.9143 26.856 74.1961 27.5268 74.55 28.16C74.9793 28.8278 75.4824 29.445 76.05 30C76.6226 30.5173 77.0969 31.1339 77.45 31.82C77.6265 32.4714 77.6673 33.1521 77.57 33.82C77.4755 34.5369 77.4755 35.2631 77.57 35.98C77.739 36.6729 77.9873 37.344 78.31 37.98C78.6805 38.5969 78.9157 39.2854 79 40C78.923 40.7029 78.7053 41.383 78.36 42C78.0323 42.6338 77.7838 43.3055 77.62 44C77.5256 44.7169 77.5256 45.4431 77.62 46.16C77.7186 46.8273 77.6812 47.5076 77.51 48.16C77.1445 48.8522 76.6605 49.4749 76.08 50C75.5348 50.5329 75.0487 51.1229 74.63 51.76C74.2751 52.3914 73.9964 53.0628 73.8 53.76C73.6391 54.4791 73.3365 55.159 72.91 55.76C72.3008 56.3602 71.6026 56.8628 70.84 57.25C70.1329 57.6408 69.4634 58.0961 68.84 58.61C68.275 59.1298 67.7687 59.71 67.33 60.34C66.8741 60.9828 66.3128 61.5441 65.67 62C64.8574 62.4521 63.9856 62.7887 63.08 63C62.2558 63.2285 61.4501 63.5194 60.67 63.87C59.9657 64.2464 59.2964 64.6848 58.67 65.18C57.9714 65.7449 57.1929 66.2032 56.36 66.54C55.4187 66.8061 54.4479 66.9539 53.47 66.98C52.5869 67.0186 51.7079 67.1222 50.84 67.29C50.0207 67.4948 49.2183 67.7622 48.44 68.09C47.5552 68.4912 46.62 68.7705 45.66 68.92C45.46 68.92 45.25 68.92 45.03 68.92C44.2588 68.8989 43.4901 68.822 42.73 68.69C41.8262 68.5565 40.9135 68.493 40 68.5C39.1081 68.5197 38.2189 68.6066 37.34 68.76C36.5774 68.9001 35.8051 68.9804 35.03 69C34.8235 69.0105 34.6165 69.0105 34.41 69C33.45 68.8505 32.5148 68.5712 31.63 68.17C30.8511 67.8437 30.0489 67.5763 29.23 67.37C28.3734 67.184 27.5045 67.0603 26.63 67C25.6489 66.9811 24.6743 66.8366 23.73 66.57C22.8982 66.231 22.12 65.7729 21.42 65.21C20.7936 64.7148 20.1243 64.2764 19.42 63.9C18.6373 63.558 17.8279 63.2804 17 63.07C16.0944 62.8587 15.2226 62.5221 14.41 62.07C13.7615 61.5889 13.2001 61.0004 12.75 60.33C12.3087 59.702 11.8026 59.1221 11.24 58.6C10.6153 58.0908 9.94588 57.639 9.24 57.25C8.47685 56.8596 7.77861 56.3536 7.17 55.75C6.7495 55.1677 6.44714 54.5086 6.28 53.81C6.07566 53.114 5.7939 52.4432 5.44 51.81C5.01186 51.1506 4.50848 50.5431 3.94 50C3.37323 49.4798 2.90268 48.8637 2.55 48.18C2.37352 47.5286 2.33268 46.8479 2.43 46.18C2.52455 45.4631 2.52455 44.7369 2.43 44.02C2.26101 43.3271 2.0127 42.656 1.69 42.02C1.31953 41.4031 1.08434 40.7146 1 40C1.07701 39.2971 1.29466 38.617 1.64 38C1.96766 37.3662 2.21618 36.6945 2.38 36C2.47443 35.2831 2.47443 34.5569 2.38 33.84C2.28139 33.1727 2.31881 32.4924 2.49 31.84C2.85553 31.1478 3.33951 30.5251 3.92 30C4.46516 29.4671 4.9513 28.8771 5.37 28.24C5.72494 27.6086 6.00356 26.9372 6.2 26.24C6.36714 25.5383 6.66944 24.876 7.09 24.29C7.69922 23.6898 8.39744 23.1872 9.16 22.8C9.86709 22.4092 10.5366 21.9539 11.16 21.44C11.725 20.9202 12.2313 20.34 12.67 19.71C13.1215 19.0493 13.683 18.4709 14.33 18C15.1426 17.5479 16.0144 17.2113 16.92 17C17.7442 16.7715 18.5499 16.4806 19.33 16.13C20.0343 15.7536 20.7036 15.3152 21.33 14.82C22.0286 14.2551 22.8071 13.7968 23.64 13.46C24.5934 13.1838 25.5779 13.0293 26.57 13C27.4531 12.9614 28.3321 12.8578 29.2 12.69C30.0193 12.4852 30.8217 12.2178 31.6 11.89C32.4818 11.4681 33.4171 11.1686 34.38 11C34.58 11 34.79 11 35.01 11C35.7812 11.0211 36.5499 11.098 37.31 11.23C38.1985 11.3882 39.0978 11.4785 40 11.5C40.8919 11.4803 41.7811 11.3934 42.66 11.24C43.4127 11.1014 44.175 11.0212 44.94 11ZM44.94 10C43.32 10 41.63 10.5 39.94 10.5C38.29 10.5 36.6 10.01 34.94 10.01C34.69 10.01 34.45 10.01 34.21 10.01C32.32 10.22 30.7 11.27 28.91 11.66C27.12 12.05 24.98 11.86 23.28 12.44C21.58 13.02 20.4 14.39 18.82 15.16C17.24 15.93 15.13 16.16 13.71 17.16C12.29 18.16 11.71 19.64 10.44 20.72C9.17 21.8 7.28 22.48 6.26 23.72C5.24 24.96 5.26 26.52 4.44 27.82C3.62 29.12 2.13 30.12 1.6 31.49C1.07 32.86 1.66 34.4 1.4 35.82C1.14 37.24 0 38.58 0 40C0 41.42 1.14 42.81 1.41 44.2C1.68 45.59 1.09 47.2 1.62 48.53C2.15 49.86 3.76 51 4.54 52.28C5.32 53.56 5.35 55.19 6.36 56.38C7.37 57.57 9.36 58.26 10.55 59.38C11.74 60.5 12.41 62 13.83 62.93C15.25 63.86 17.36 64.1 18.94 64.87C20.52 65.64 21.69 66.99 23.41 67.59C25.13 68.19 27.22 67.96 29.04 68.36C30.86 68.76 32.46 69.8 34.34 70C34.5798 70.0149 34.8202 70.0149 35.06 70C36.68 70 38.37 69.5 40.06 69.5C41.71 69.5 43.4 69.99 45.06 69.99C45.31 69.99 45.55 69.99 45.79 69.99C47.68 69.78 49.3 68.73 51.09 68.34C52.88 67.95 55.02 68.14 56.72 67.56C58.42 66.98 59.6 65.56 61.18 64.84C62.76 64.12 64.87 63.84 66.29 62.84C67.71 61.84 68.29 60.36 69.56 59.28C70.83 58.2 72.72 57.52 73.74 56.28C74.76 55.04 74.74 53.48 75.56 52.18C76.38 50.88 77.94 49.82 78.47 48.45C79 47.08 78.41 45.54 78.67 44.12C78.93 42.7 80 41.42 80 40C80 38.58 78.86 37.19 78.59 35.8C78.32 34.41 78.91 32.8 78.38 31.47C77.85 30.14 76.24 29 75.46 27.72C74.68 26.44 74.65 24.81 73.64 23.62C72.63 22.43 70.64 21.74 69.45 20.62C68.26 19.5 67.59 18 66.17 17.11C64.75 16.22 62.64 15.94 61.06 15.17C59.48 14.4 58.31 13.05 56.59 12.45C54.87 11.85 52.78 12.08 50.96 11.68C49.14 11.28 47.54 10.24 45.66 10.04C45.4202 10.0251 45.1798 10.0251 44.94 10.04V10Z" fill="white"/>
<path opacity="0.16" d="M73.06 37.43C73.06 38.43 72.12 39.43 71.9 40.43C71.68 41.43 72.17 42.57 71.73 43.54C71.29 44.51 69.97 45.3 69.33 46.23C68.69 47.16 68.66 48.33 67.83 49.23C67 50.13 65.39 50.59 64.37 51.36C63.35 52.13 62.84 53.25 61.67 53.92C60.5 54.59 58.75 54.77 57.44 55.33C56.13 55.89 55.18 56.86 53.76 57.28C52.34 57.7 50.61 57.56 49.11 57.85C47.61 58.14 46.29 58.85 44.73 59.03C43.17 59.21 41.6 58.71 40.03 58.71C38.46 58.71 36.84 59.18 35.32 59.04C33.8 58.9 32.42 58.14 30.94 57.86C29.46 57.58 27.69 57.72 26.29 57.3C24.89 56.88 23.9 55.9 22.6 55.3C21.3 54.7 19.54 54.56 18.37 53.9C17.2 53.24 16.68 52.11 15.66 51.34C14.64 50.57 13.05 50.08 12.2 49.21C11.35 48.34 11.34 47.21 10.69 46.21C10.04 45.21 8.69 44.51 8.28 43.52C7.87 42.53 8.33 41.43 8.1 40.41C7.87 39.39 6.94 38.41 6.94 37.41C6.94 36.41 7.88 35.41 8.1 34.41C8.32 33.41 7.83 32.27 8.27 31.29C8.71 30.31 10.03 29.53 10.67 28.61C11.31 27.69 11.34 26.51 12.17 25.61C13 24.71 14.61 24.26 15.63 23.48C16.65 22.7 17.16 21.6 18.33 20.92C19.5 20.24 21.25 20.07 22.56 19.52C23.87 18.97 24.82 17.99 26.24 17.52C27.66 17.05 29.39 17.25 30.89 16.96C32.39 16.67 33.71 15.96 35.27 15.77C36.83 15.58 38.4 16.1 39.97 16.1C41.54 16.1 43.16 15.63 44.68 15.77C46.2 15.91 47.58 16.67 49.06 16.95C50.54 17.23 52.31 17.09 53.71 17.51C55.11 17.93 56.1 19 57.4 19.57C58.7 20.14 60.46 20.3 61.63 20.97C62.8 21.64 63.32 22.75 64.34 23.53C65.36 24.31 67 24.79 67.8 25.65C68.6 26.51 68.66 27.65 69.31 28.65C69.96 29.65 71.31 30.34 71.72 31.33C72.13 32.32 71.72 33.42 71.9 34.45C72.08 35.48 73.06 36.39 73.06 37.43Z" fill="black"/>
</svg>
