<svg width="80" height="80" viewBox="0 0 80 80" fill="none" xmlns="http://www.w3.org/2000/svg">
<g opacity="0.48">
<g opacity="0.48">
<path d="M46.25 13C44.4416 11.6604 42.2506 10.9373 40 10.9373C37.7494 10.9373 35.5584 11.6604 33.75 13L6.25 35C5.45132 35.5665 4.79997 36.316 4.35046 37.186C3.90096 38.0559 3.66639 39.0208 3.66639 40C3.66639 40.9792 3.90096 41.9441 4.35046 42.814C4.79997 43.6839 5.45132 44.4335 6.25 45L33.75 67C35.5584 68.3396 37.7494 69.0627 40 69.0627C42.2506 69.0627 44.4416 68.3396 46.25 67L73.75 45C74.5487 44.4335 75.2 43.6839 75.6495 42.814C76.099 41.9441 76.3336 40.9792 76.3336 40C76.3336 39.0208 76.099 38.0559 75.6495 37.186C75.2 36.316 74.5487 35.5665 73.75 35L46.25 13Z" fill="black"/>
</g>
</g>
</svg>
