<svg width="80" height="80" viewBox="0 0 80 80" fill="none" xmlns="http://www.w3.org/2000/svg">
<path d="M40 20.5C23.43 20.5 10 29.23 10 40C10 50.77 23.43 59.5 40 59.5C56.57 59.5 70 50.77 70 40C70 29.23 56.57 20.5 40 20.5ZM40 53.5C27.21 53.5 16 47.19 16 40C16 32.81 27.21 26.5 40 26.5C52.79 26.5 64 32.81 64 40C64 47.19 52.79 53.5 40 53.5Z" fill="#8B408F"/>
<path d="M40 20.5C23.43 20.5 10 29.23 10 40C10 50.77 23.43 59.5 40 59.5C56.57 59.5 70 50.77 70 40C70 29.23 56.57 20.5 40 20.5Z" stroke="white" stroke-miterlimit="10"/>
<path d="M40 25.32C27.21 25.32 16 31.9 16 39.41C16 46.92 27.21 53.5 40 53.5C52.79 53.5 64 46.91 64 39.41C64 31.91 52.79 25.32 40 25.32ZM40 52C27.31 52 17.48 46 17.48 40.76C17.48 35.52 27.31 29.5 40 29.5C52.69 29.5 62.52 35.5 62.52 40.76C62.52 46.02 52.69 52 40 52Z" fill="#DDCEDB"/>
</svg>
