<svg width="68" height="68" viewBox="0 0 68 68" fill="none" xmlns="http://www.w3.org/2000/svg">
<g opacity="0.12">
<path opacity="0.12" d="M39.25 54.5L38.77 58.18C41.7853 58.6014 44.8446 58.6014 47.86 58.18C51.2729 57.7176 54.5411 56.5052 57.43 54.63C58.8415 53.6962 60.1431 52.606 61.31 51.38C65.97 46.38 67.67 39.94 66.93 36.08C66.6479 34.6827 65.9863 33.3901 65.0178 32.344C64.0494 31.2979 62.8115 30.5388 61.44 30.15C59.6281 29.5945 57.6991 29.5426 55.86 30C53.8286 30.5031 51.968 31.5386 50.47 33L51.34 33.9L53.06 35.66C53.9843 34.7101 55.1453 34.024 56.4233 33.6724C57.7012 33.3208 59.0498 33.3166 60.33 33.66C61.0667 33.8443 61.7375 34.23 62.2674 34.774C62.7972 35.318 63.1652 35.9987 63.33 36.74C63.8 39.19 62.66 44.56 58.65 48.8C56.4152 51.1629 53.5919 52.8886 50.47 53.8C46.8231 54.8331 42.997 55.0718 39.25 54.5Z" fill="black"/>
<path opacity="0.12" d="M55.3 34.39C55.3 43.91 47.95 66.85 28.1 66.85C8.24999 66.85 0.899994 43.91 0.899994 34.39" fill="black"/>
<path opacity="0.12" d="M28.1 51.63C43.1221 51.63 55.3 43.9114 55.3 34.39C55.3 24.8686 43.1221 17.15 28.1 17.15C13.0778 17.15 0.899994 24.8686 0.899994 34.39C0.899994 43.9114 13.0778 51.63 28.1 51.63Z" fill="black"/>
<path opacity="0.12" d="M28.1 48.61C41.8795 48.61 53.05 41.8719 53.05 33.56C53.05 25.2481 41.8795 18.51 28.1 18.51C14.3205 18.51 3.14999 25.2481 3.14999 33.56C3.14999 41.8719 14.3205 48.61 28.1 48.61Z" fill="black"/>
<path opacity="0.12" d="M28.1 20.32C41.37 20.32 52.22 26.57 53 34.46C53 34.16 53 33.86 53 33.56C53 25.25 41.83 18.56 28.05 18.56C14.27 18.56 3.04999 25.3 3.04999 33.61C3.04999 33.91 3.04999 34.21 3.09999 34.51C3.99999 26.57 14.83 20.32 28.1 20.32Z" fill="black"/>
</g>
<path d="M39.25 46.5L38.77 50.18C41.7853 50.6014 44.8446 50.6014 47.86 50.18C51.2729 49.7176 54.5411 48.5052 57.43 46.63C58.8415 45.6962 60.1431 44.606 61.31 43.38C65.97 38.38 67.67 31.94 66.93 28.08C66.6479 26.6827 65.9863 25.3901 65.0178 24.344C64.0494 23.2979 62.8115 22.5388 61.44 22.15C59.6281 21.5945 57.6991 21.5426 55.86 22C53.8286 22.5031 51.968 23.5386 50.47 25L51.34 25.9L53.06 27.66C53.9843 26.7101 55.1453 26.024 56.4233 25.6724C57.7012 25.3208 59.0498 25.3166 60.33 25.66C61.0667 25.8443 61.7375 26.23 62.2674 26.774C62.7972 27.318 63.1652 27.9987 63.33 28.74C63.8 31.19 62.66 36.56 58.65 40.8C56.4152 43.1629 53.5919 44.8886 50.47 45.8C46.8231 46.8331 42.997 47.0718 39.25 46.5Z" fill="white"/>
<path d="M55.3 26.39C55.3 35.91 47.95 58.85 28.1 58.85C8.24999 58.85 0.899994 35.91 0.899994 26.39" fill="white"/>
<path d="M28.1 43.63C43.1221 43.63 55.3 35.9114 55.3 26.39C55.3 16.8686 43.1221 9.15002 28.1 9.15002C13.0778 9.15002 0.899994 16.8686 0.899994 26.39C0.899994 35.9114 13.0778 43.63 28.1 43.63Z" fill="#E2E2E2"/>
<path d="M28.1 40.61C41.8795 40.61 53.05 33.8719 53.05 25.56C53.05 17.2481 41.8795 10.51 28.1 10.51C14.3205 10.51 3.14999 17.2481 3.14999 25.56C3.14999 33.8719 14.3205 40.61 28.1 40.61Z" fill="#959595"/>
<path d="M28.1 12.32C41.37 12.32 52.22 18.57 53 26.46C53 26.16 53 25.86 53 25.56C53 17.25 41.83 10.56 28.05 10.56C14.27 10.56 3.04999 17.3 3.04999 25.61C3.04999 25.91 3.04999 26.21 3.09999 26.51C3.99999 18.57 14.83 12.32 28.1 12.32Z" fill="#AFAFAF"/>
</svg>
